HIERARCHY
ROOT root
{
	OFFSET 0.000000 0.000000 0.000000
	CHANNELS 6 Xposition Yposition Zposition Zrotation Yrotation Xrotation
	JOINT lhip
	{
		OFFSET 0.058581 -0.082280 -0.017664
		CHANNELS 3 Zrotation Yrotation Xrotation
		JOINT lknee
		{
			OFFSET 0.043451 -0.386469 0.008037
			CHANNELS 3 Zrotation Yrotation Xrotation
			JOINT lankle
			{
				OFFSET -0.014790 -0.426874 -0.037428
				CHANNELS 3 Zrotation Yrotation Xrotation
				JOINT ltoe
				{
					OFFSET 0.041054 -0.060286 0.122042
					CHANNELS 3 Zrotation Yrotation Xrotation
					End Site
					{
						OFFSET 0.000000 0.000000 0.000000
					}
				}
			}
		}
	}
	JOINT rhip
	{
		OFFSET -0.060310 -0.090513 -0.013543
		CHANNELS 3 Zrotation Yrotation Xrotation
		JOINT rknee
		{
			OFFSET -0.043257 -0.383688 -0.004843
			CHANNELS 3 Zrotation Yrotation Xrotation
			JOINT rankle
			{
				OFFSET 0.019056 -0.420046 -0.034562
				CHANNELS 3 Zrotation Yrotation Xrotation
				JOINT rtoe
				{
					OFFSET -0.034840 -0.062106 0.130323
					CHANNELS 3 Zrotation Yrotation Xrotation
					End Site
					{
						OFFSET 0.000000 0.000000 0.000000
					}
				}
			}
		}
	}
	JOINT lowerback
	{
		OFFSET 0.004439 0.124404 -0.038385
		CHANNELS 3 Zrotation Yrotation Xrotation
		JOINT upperback
		{
			OFFSET 0.004488 0.137956 0.026820
			CHANNELS 3 Zrotation Yrotation Xrotation
			JOINT chest
			{
				OFFSET -0.002265 0.056032 0.002855
				CHANNELS 3 Zrotation Yrotation Xrotation
				JOINT lowerneck
				{
					OFFSET -0.013390 0.211636 -0.033468
					CHANNELS 3 Zrotation Yrotation Xrotation
					JOINT upperneck
					{
						OFFSET 0.010113 0.088937 0.050410
						CHANNELS 3 Zrotation Yrotation Xrotation
						End Site
						{
							OFFSET 0.000000 0.000000 0.000000
						}
					}
				}
				JOINT lclavicle
				{
					OFFSET 0.071702 0.114000 -0.018898
					CHANNELS 3 Zrotation Yrotation Xrotation
					JOINT lshoulder
					{
						OFFSET 0.122921 0.045205 -0.019046
						CHANNELS 3 Zrotation Yrotation Xrotation
						JOINT lelbow
						{
							OFFSET 0.255332 -0.015649 -0.022946
							CHANNELS 3 Zrotation Yrotation Xrotation
							JOINT lwrist
							{
								OFFSET 0.265709 0.012698 -0.007375
								CHANNELS 3 Zrotation Yrotation Xrotation
								End Site
								{
									OFFSET 0.000000 0.000000 0.000000
								}
							}
						}
					}
				}
				JOINT rclavicle
				{
					OFFSET -0.082954 0.112472 -0.023707
					CHANNELS 3 Zrotation Yrotation Xrotation
					JOINT rshoulder
					{
						OFFSET -0.113228 0.046853 -0.008472
						CHANNELS 3 Zrotation Yrotation Xrotation
						JOINT relbow
						{
							OFFSET -0.260127 -0.014369 -0.031269
							CHANNELS 3 Zrotation Yrotation Xrotation
							JOINT rwrist
							{
								OFFSET -0.269108 0.006794 -0.006027
								CHANNELS 3 Zrotation Yrotation Xrotation
								End Site
								{
									OFFSET 0.000000 0.000000 0.000000
								}
							}
						}
					}
				}
			}
		}
	}
}
MOTION
Frames: 10
Frame Time: 0.033333
-1.357725 0.890095 0.966653 77.436831 -5.638681 90.452028 -1.119828 -4.458700 -23.231475 -3.725371 7.551341 18.574779 6.957592 12.293800 -6.041654 0.000000 -0.000000 0.000000 -10.447370 -6.977235 10.633508 -0.846089 -0.573466 27.909396 10.915115 -7.377497 -12.183345 0.000000 -0.000000 0.000000 -5.353013 9.385727 11.983362 -2.207679 -3.640154 -2.641722 -1.468227 -0.254257 1.110987 -2.096894 9.829771 -5.066661 -1.759845 7.712535 8.250816 -27.478748 4.558759 0.661869 -49.827180 1.807685 10.915288 0.064322 -34.567098 15.092013 -0.793192 -9.740534 -7.100911 29.538491 -0.001145 1.616263 50.726027 -0.123777 18.460536 -9.406925 38.219950 -1.033364 -0.872633 6.203782 0.463633 
-1.325195 0.896458 0.970622 79.170146 -5.238146 90.191983 -2.178980 -5.151802 -21.575776 -3.831104 6.124624 19.520516 8.478381 12.590567 -7.809081 0.000000 -0.000000 0.000000 -9.999875 -6.337713 7.890703 -1.604546 -1.077483 35.331893 10.838387 -9.189710 -5.047055 0.000000 -0.000000 0.000000 -5.106999 8.282761 12.375703 -1.679113 -3.500131 -3.229013 -1.549950 -0.286043 0.879807 -2.014000 8.028847 -4.802628 -1.891387 7.672363 9.335232 -27.284389 4.007899 1.424843 -49.793674 1.220580 10.795983 -0.111741 -32.521964 16.257813 -2.063163 -9.662268 -5.806903 28.937198 -0.082977 1.940281 51.480256 -0.959482 18.450760 -10.115258 36.760589 -1.744701 -0.274991 5.860322 -0.930442 
-1.294004 0.901490 0.974180 80.650320 -4.962337 89.765732 -3.179910 -4.941737 -19.047579 -4.064744 4.431440 19.178065 8.832429 12.752210 -9.192989 0.000000 -0.000000 0.000000 -9.189535 -5.394817 4.301600 -1.924879 -1.137001 43.413465 8.215674 -11.415543 -1.334326 0.000000 -0.000000 0.000000 -5.063425 6.907647 13.015597 -1.392966 -3.086881 -3.827085 -1.642770 -0.457974 0.992926 -1.709003 7.680512 -4.262271 -2.197246 7.967933 9.117080 -27.059361 3.833519 1.468996 -49.161936 0.921232 10.427010 -0.198563 -31.946086 16.310301 -3.317350 -9.396250 -5.904470 28.762525 -0.002639 1.622714 51.790916 -1.454450 18.801712 -9.936496 35.358932 -1.344523 1.309042 5.488955 -0.208359 
-1.255569 0.906994 0.979857 82.363480 -4.804463 88.144845 -4.751973 -3.981295 -14.190410 -4.338850 1.401659 17.859985 9.161442 13.741711 -10.632847 0.000000 -0.000000 0.000000 -8.188551 -4.221304 0.151347 -1.492897 -0.746991 53.815558 6.751165 -12.379528 -1.915228 0.000000 -0.000000 0.000000 -5.166118 5.232311 14.772033 -1.150352 -2.471974 -3.900739 -1.559555 -0.531634 1.151068 -1.208544 7.905277 -4.293984 -2.645428 7.734287 9.395916 -27.115656 3.385185 1.340745 -47.876998 0.699887 9.915343 -0.084878 -32.461852 15.223845 -2.637763 -10.096344 -5.588416 29.003870 0.639507 1.178196 51.508488 -1.999982 19.052324 -9.231272 34.119696 -0.756314 2.125302 6.139160 1.279265 
-1.232870 0.910373 0.983658 83.393759 -4.668622 87.293650 -5.548690 -3.689255 -11.085909 -4.147180 -0.164456 16.493006 9.077420 14.248579 -11.310446 0.000000 -0.000000 0.000000 -7.431735 -3.477696 -2.552772 -0.901352 -0.718579 58.941183 6.024839 -12.259205 -2.125756 0.000000 -0.000000 0.000000 -5.112973 4.275758 15.473125 -0.945376 -2.157252 -3.607655 -1.464604 -0.629866 1.247949 -1.208478 7.678625 -4.201115 -2.815758 7.690394 9.066634 -27.183312 2.880401 1.017948 -47.474686 0.594244 9.753488 0.787182 -32.715194 13.576489 -2.738740 -10.319955 -5.284240 29.119525 0.995608 1.033270 51.243702 -2.635085 19.110407 -9.285997 34.710259 -0.020718 4.913713 5.661782 1.608036 
-1.204024 0.914174 0.989110 85.574478 -3.982510 86.796082 -6.014035 -2.914869 -7.780193 -3.963436 -3.528918 14.658088 9.198774 14.568252 -11.681630 0.000000 -0.000000 0.000000 -6.000592 -2.719710 -6.619420 -0.160390 -1.616714 63.875479 5.863433 -11.881482 -3.180599 0.000000 -0.000000 0.000000 -4.429776 2.432583 15.909259 -0.546532 -1.916216 -3.597997 -1.489341 -1.068076 1.204253 -1.164408 7.564883 -3.980817 -3.231762 7.342535 9.238455 -27.271474 2.724709 1.178441 -47.108772 0.092583 9.185288 1.897406 -33.196291 11.558393 -1.637123 -9.910556 -4.832202 29.039141 1.008121 1.000950 51.309003 -3.028288 18.889080 -8.925341 34.544603 0.574201 4.912849 5.761111 1.447423 
-1.175103 0.916779 0.994196 87.749110 -3.417057 86.155448 -6.260453 -1.686311 -4.187021 -3.500971 -6.580054 12.564930 8.529985 14.456600 -12.478089 0.000000 -0.000000 0.000000 -4.856639 -2.283250 -10.314686 -0.258303 -3.043560 66.342102 5.437551 -12.393186 -5.604801 0.000000 -0.000000 0.000000 -4.042881 0.673789 16.408963 -0.243154 -1.795126 -3.638396 -1.368052 -1.290926 1.411193 -0.690056 7.858900 -3.283138 -3.294246 7.222432 8.999028 -27.240976 2.574201 1.085371 -46.610432 -0.708723 8.839755 2.697761 -33.856063 9.821277 -0.820672 -9.842071 -5.005944 29.134980 1.027793 0.540824 51.452622 -3.675260 18.746492 -9.004603 34.331722 0.357131 4.673216 5.928083 1.390440 
-1.147113 0.918750 0.999339 89.463861 -2.909073 85.629773 -5.932206 -0.545689 -0.418902 -3.375316 -8.897858 9.980448 8.117505 14.131453 -12.886894 0.000000 -0.000000 0.000000 -4.123123 -1.733961 -13.852809 -0.295180 -4.468406 66.086159 4.652297 -12.944143 -7.122838 0.000000 -0.000000 0.000000 -3.723470 -0.830164 16.771562 0.069264 -1.583928 -3.414196 -1.175730 -1.456862 1.571079 -0.553083 7.666522 -3.030311 -3.273782 6.351949 8.596073 -27.054852 2.673436 0.900850 -46.481028 -1.638521 8.688419 3.476698 -35.079114 8.318860 0.130979 -9.507213 -5.560753 29.128747 0.680286 0.144255 51.625225 -4.225021 18.553576 -9.477572 34.978529 0.433950 4.912126 5.380039 1.527312 
-1.118322 0.919926 1.002314 90.970510 -2.364765 85.314382 -5.398425 0.872008 3.014583 -2.805283 -10.965463 7.513694 7.032207 13.649627 -13.124241 0.000000 -0.000000 0.000000 -3.500394 -1.198485 -17.162531 0.153824 -5.421860 63.707762 4.837726 -12.347052 -8.606278 0.000000 -0.000000 0.000000 -3.325039 -2.306999 16.859703 0.359295 -1.302172 -3.208653 -0.849939 -1.772326 1.840431 -0.052759 6.704369 -1.952919 -3.979675 5.689160 7.032003 -27.017035 2.998454 0.400684 -46.514014 -2.462078 8.850943 4.475354 -36.655930 6.348559 2.760104 -9.827243 -5.322670 28.803927 0.372506 -0.341985 51.693682 -4.298638 18.637615 -8.969673 34.702362 0.536499 3.989202 5.344402 1.516325 
-1.083444 0.921108 1.003460 92.524475 -2.005542 85.016573 -4.674953 2.079233 6.946038 -2.366858 -12.719198 4.799352 6.152485 13.206228 -13.559935 0.000000 -0.000000 0.000000 -3.234507 -0.925466 -20.715825 0.394767 -6.081293 57.739597 5.323319 -11.664832 -10.342356 0.000000 -0.000000 0.000000 -2.938551 -3.553786 17.496967 0.480285 -1.199995 -3.483587 -0.594204 -2.095125 1.448185 0.314609 8.476096 -2.856163 -2.672470 5.651294 8.554947 -26.523571 2.891934 1.054491 -46.403809 -3.111638 8.891973 4.607968 -38.887376 5.593069 3.463585 -10.539867 -6.427067 29.096539 0.111494 0.067417 51.397136 -4.606865 18.187034 -8.783654 34.875099 0.772448 3.251667 5.677425 1.587799 
